<?xml version="1.0" encoding="utf-8"?>
<!-- Generator: Adobe Illustrator 22.1.0, SVG Export Plug-In . SVG Version: 6.00 Build 0)  -->
<svg version="1.1" id="Layer_1" xmlns="http://www.w3.org/2000/svg" xmlns:xlink="http://www.w3.org/1999/xlink" x="0px" y="0px"
	 viewBox="0 0 500 864.3" style="enable-background:new 0 0 500 864.3;" xml:space="preserve">
<style type="text/css">
	.st0{fill:none;stroke:#FFFFFF;stroke-miterlimit:10;}
	.st1{fill:none;stroke:#FFFFFF;stroke-width:1.1339;stroke-miterlimit:10;}
	.st2{fill:none;stroke:#76B72D;stroke-miterlimit:10;}
	.st3{fill:none;stroke:#76B72D;stroke-width:0.8504;stroke-miterlimit:10;}
	.st4{font-family:'Rune';}
	.st5{font-size:79.9261px;}
	.st6{fill:none;stroke:#76B72D;stroke-width:0.2835;stroke-miterlimit:10;}
</style>
<path class="st0" d="M307.8,70.3"/>
<path class="st1" d="M386.7,299.5"/>
<path class="st1" d="M386.7,415.1"/>
<g>
	<path class="st0" d="M255.2,251.3c0.6-5.7,6.2-22.5,7.2-26.2c0,0,2.1-15.2,2.5-20.7s0-9.7,0-9.7"/>
	<path class="st0" d="M264.4,163.7c0,0,0.8-0.4,0.8-1.7s-0.5-14.3-0.5-14.3c-1.3-10.1,3.1-24.6,4.4-30.2s1.9-38.4,1.6-57
		c-0.3-18.6,6.9-30.2,19.5-31.2c12.6-0.9,21.4,18.3,22.4,21.4c0.9,3.1,1.3,17.6,0.9,42.8s2.2,36.9,2.2,47.6c0,0-0.5,3.3-0.1,12.3
		c0.4,9,0.6,10.3,0.6,10.3"/>
	<path class="st0" d="M316.6,196.4c0,0-1.3,9.2-0.8,14.3c0.4,5,0.8,10.1,1.7,15.5c0.8,5.5,0.8,10.9,1.3,14.7
		c0.4,3.8,2.6,9.7,2.6,9.7c3.8,19.5,10.7,24.9,12.6,23.9c1.9-0.9-0.3-10.1-0.6-27.1c-0.3-17-2.2-18.6-2.2-35.3s4.1-30.9,10.4-40.6
		s19.5-12.3,24.6-7.6s1.6,18.3,1.3,28s7.9,26.1,9.4,31.5s3.1,20.2,3.1,32.4s5.7,40.6,7.2,50.7c1.6,10.1-3.1,20.8-5.7,28.3
		c-2.5,7.6-7.6,24.6-10.7,40.3c-3.1,15.7-11.3,41.6-21.4,53.5c-10.1,12-26.5,59.8-30.2,75c0,0-22.7,78.7-20.8,88.2
		c1.9,9.4,3.1,67.4,0.6,89.5L286.6,654l-40.3-60.5v-32.3l-8,2.9l-8.8-34.4l-4.6,39.1l-33.6,50.4l-20.6-13l-10.9,62.6"/>
	<path class="st0" d="M263.3,211.6c0,0-12.3,3.9-13.9-0.9c-1.6-4.9-0.2-35.6-0.2-35.6s0.2-22.3,0.4-29.9s-2.5-31.5-2.6-39.2
		s0.6-32.9,0.5-38.1s-2.5-28.2-13.7-29.6s-22.4-2.5-24.3,9.3S207,84.7,207,84.7s-2,28.1-3.3,35.2s-5.7,16.5-3.8,28.2
		c1.9,11.8,3.3,17.5,3.9,37.1s1.6,33.7,0.6,49.1c-0.9,15.4-3.5,13.5-3.5,13.5"/>
	<path class="st0" d="M204.2,219.2c0,0-5.7,3.5-5.4-15.1c0.3-18.6-2.5-36.5-2.2-40c0.3-3.5,0.9-27.4,0.9-37.2s2.9-41.7-4.4-44.2
		c-7.4-2.5-11.6-5.2-23.7,0.2c-8,3.6-7.6,22-7.3,31.1s-1.1,18.5-1.1,22.7s-2.5,26.5-2.7,28.3c-0.2,1.9-2.3,26,0,34
		s5.7,34.6,6.3,36.7c0.6,2.1,0.1,19.8-0.3,29.4c-0.3,9.6-6.3,26.9-6.9,27.7"/>
	<path class="st0" d="M162.8,264.8c0,0-3.6,0.5-5.7-15.4s-2.8-25.2-2.8-38.2s1.1-36.1,1.1-36.1s-11.1-10.7-17.2-2.7
		s-10.5,19.5-12.6,27.3c-2.1,7.8-6.1,28.6-6.7,35.9s2.8,18.3,3.8,26.5c0.9,8.2,3.8,42.5,4.7,52.3c0.9,9.8-1.3,17.3,6.9,36.9
		c8.2,19.5,11.2,26.1,14.2,33.7c2.9,7.6,19.7,41.6,20.2,52.9c0.4,11.3,6.7,1.7-0.4,42.4c-7.1,40.7-8.4,44.9-13.4,57.1
		c0,0-0.6,33.4,0.6,58.6c1.3,25.2,3.8,60.5,3.8,74.3"/>
	<path class="st0" d="M155.6,303.2c0,0,9.2,28.3,9,35.5"/>
	<path class="st0" d="M166.3,286.6c0,0,2.7,26.7,2.7,30.9"/>
	<path class="st0" d="M236.6,302.3c0,0,0,25.8-1.3,35.3"/>
	<path class="st0" d="M232.2,369.1c0,0-3.8,21.4-6.9,31.5"/>
	<path class="st0" d="M248,206.6c0,0-3.1,23.9-1.9,30.2"/>
	<path class="st0" d="M195.7,243.1c0-2.5,1.3-24.6,1.3-24.6"/>
	<path class="st0" d="M193.2,268.3c2.5,15.7,9.4,69.3,9.4,71.8"/>
	<path class="st0" d="M264.8,275.7c0,0-33.6,124.3-33.6,131.9"/>
	<path class="st0" d="M311,314.3c0,0-2.5,89-7.6,105"/>
</g>
<path class="st2" d="M261.8,616c-1.9,21.4-1.3,87.6,0.6,98.3c1.9,10.7,3.8,11.1,0,35"/>
<path class="st2" d="M231.4,753.7c-2.5-13.2-4.8-62.1-4.8-64.6s7.6-52.3,6.9-71.8c-0.6-19.5,6.5-27.3,9.7-30.4
	c3.1-3.1-3.4-19.9-0.2-26.2"/>
<path class="st0" d="M231,826.4"/>
<path class="st2" d="M227.2,654.5c0,0-8.8-22.7-10.1-34.6c-1.3-12-4.4-21.4-5.7-32.1"/>
<path class="st2" d="M222.8,691.6c0,0-46.6-22-46.6-30.9"/>
<path class="st2" d="M169.2,733.8c0,0,5.7-59.8,5.7-81.9"/>
<polygon class="st2" points="277,690.6 265.2,620.9 286.6,654 "/>
<polygon class="st0" points="287,669.2 283.7,700.7 299.2,695.6 "/>
<polygon class="st0" points="172,612.5 161.5,671.3 190.9,622.1 "/>
<polygon class="st0" points="233.7,555.4 240.8,585.6 229.5,592.7 "/>
<polyline class="st0" points="246.3,561.2 242.3,483.1 228.8,524.1 "/>
<path class="st0" d="M203.9,600.3c0,0,8.2,4.4,10.1,5"/>
<path class="st0" d="M243.1,586.9c0,0-0.2,2.1-2.1,7.1s20.2,46,20.2,46"/>
<path class="st2" d="M260.6,657.6c0,0,4.4-13.2,6.3-15.1"/>
<path class="st2" d="M228.4,708c0,0,2.5-14.5,9.4-28.3c6.9-13.9,10.7-11.3,10.7-20.2c0-8.8-1.9-23.3-1.9-23.3s0-15.1,0-17
	c0-1.9,1.3-6.3,1.3-6.3"/>
<path class="st0" d="M252.4,627.4"/>
<path class="st0" d="M246.7,636.2c0,0,6.3-9.4,10.1-8.8"/>
<path class="st2" d="M190,674.2c0,0-1.7-11.3-2.1-22.3c-0.4-10.9-0.4-20.2,2.1-24.4s3.4-4.6,3.4-7.6s0-2.9,0-2.9"/>
<path class="st0" d="M189.2,635.6c0,0,11.3-11.3,12.2-12.6c0.8-1.3,2.1-8.4,2.1-8.4"/>
<path class="st0" d="M200.1,625.1c0,0,4.6-1.3,6.3-1.3"/>
<path class="st2" d="M172.4,687.2c-0.8-1.7-1.7-9.7-3.4-11.3c-1.7-1.7-3.4-2.9-3.4-2.9"/>
<path class="st2" d="M169.4,678c0,0-0.8-0.8-2.9,0.8"/>
<path class="st2" d="M263.9,724.2c0,0,1.3-18.5,2.9-27.3c1.7-8.8,0.4-10.1,2.5-14.3"/>
<path class="st2" d="M265.6,701.9c0,0,4.6-9.7,8.4-9.7"/>
<path class="st2" d="M226.6,689.1c0,0-1.7-14.5-8-20.4c-6.3-5.9-10.1-4.2-9.2-11.3c0.8-7.1,1.3-5.9,1.7-12.2c0.4-6.3,0-12.6,0-12.6
	l-3.4-5"/>
<line class="st2" x1="211" y1="645.2" x2="205.6" y2="636.4"/>
<path class="st2" d="M209.3,657.4c0,0-5-0.8-6.3-3.8c-1.3-2.9-2.1-8-2.1-8"/>
<line class="st2" x1="203" y1="653.6" x2="198" y2="652.4"/>
<path class="st2" d="M216.1,666.2c0-1.7,0.4-9.2,0.8-10.9c0.4-1.7,1.3-7.1,1.3-7.1"/>
<line class="st2" x1="216.9" y1="658.2" x2="221.9" y2="653.2"/>
<path class="st2" d="M229.1,735.9c0-5-7.6-10.5-8.8-13.9c-1.3-3.4-3.8-3.8-4.2-11.8c-0.4-8,3.8-5-2.9-10.5
	c-6.7-5.5-9.2-6.3-10.9-6.3"/>
<path class="st2" d="M215.2,712c-0.8-1.7-4.6-4.6-8-5.5s-5.9-2.1-7.1-4.6s-3.8-4.6-3.8-4.6"/>
<line class="st2" x1="201.4" y1="704" x2="196.7" y2="704.4"/>
<line class="st2" x1="208.5" y1="696" x2="206.4" y2="689.3"/>
<path class="st2" d="M229.5,720c1.7-2.5,8.4-9.2,8.4-9.2s4.2-6.7,5.5-10.9"/>
<line class="st2" x1="241.7" y1="707.4" x2="245.9" y2="707"/>
<path class="st2" d="M260.2,696.9c0,0-1.3-1.3-5-5.5c-3.8-4.2-4.2-4.6-4.6-8"/>
<line class="st2" x1="253" y1="688.5" x2="248.8" y2="688.9"/>
<path class="st2" d="M171.5,716.6c0,0,8-5.9,9.2-11.3c1.3-5.5-0.8-2.1,2.1-9.2c2.9-7.1,2.1-9.7,5.5-10.5"/>
<line class="st2" x1="182.9" y1="692.7" x2="189.2" y2="690.6"/>
<polygon class="st2" points="207.2,613.7 196.7,672.5 226.1,623.4 "/>
<polygon class="st2" points="246.3,593.6 250.1,678.8 257.6,646.5 "/>
<polygon class="st2" points="257.6,646.5 265.2,620.9 246.3,595.3 "/>
<polygon class="st2" points="253.4,664.1 274,674.6 265.2,624.2 "/>
<polygon class="st2" points="246.3,593.6 245.6,594.9 233.5,617.3 248.8,684.7 "/>
<path class="st0" d="M233.5,617.3"/>
<polygon class="st0" points="245.6,594 229.2,594.6 233.6,616.4 "/>
<polygon class="st0" points="229.1,593.7 207,613 233.5,617.3 "/>
<text transform="matrix(0.9933 0.1155 -0.1155 0.9933 320.5252 344.8799)" class="st3 st4 st5">t</text>
<g>
	<path class="st6" d="M258.7,167.5c0,0,0.9-2,4.1-2.4c3.2-0.4,3.3-0.1,7.4-0.7c4.1-0.5,10.3-1.7,12.5-2.4c2.2-0.7,5-1.3,7.9-1.5
		c2.9-0.1,11.6-0.7,13.7-0.4c2.1,0.3,3.3,1.9,5.2,2.1c1.8,0.2,3.7,0.2,4.7,1.3c1,1.1,1.4,2,2.5,1.7c1.1-0.3,1.1-1,2.1-0.8
		c1,0.3,2.1,0.7,2.5,1.3c0.5,0.7,0.5,3.1,0.5,3.1s-0.1,10.5-0.1,10.7s0.5,1.7,0.6,2.4c0.1,0.7-0.7,2.6-0.6,3.3
		c0.1,0.7,0.8,7-0.7,8.1c-1.4,1.1-2.9,0.5-7.5,0.4c-4.6-0.1-6.3-1.6-7.1-2.1c-0.8-0.4-1.3-0.2-2.4-0.2c-1.1,0-5.1-0.3-7.4-0.9
		c-2.4-0.6-2.3,0-3.5,0.3c-1.2,0.3-10.8,1.8-15.9,0.6c-2.4-0.6-3-3.1-2.9-3.6c0.1-0.5,0.5-0.8,0.2-0.8c-0.3,0-4.5-0.7-4.7-0.1
		c-0.2,0.6,0.7,3.2-1,4.4c-1.6,1.2-3.5,1.7-4.4,1.6c-0.8-0.1-1.4-0.5-1.6-0.2c-0.3,0.3-0.8,1.5-1.6,1.5c-0.8,0-3.2,0.3-3.2-1.8
		c0-2.1-0.1-10.6,0-10.7c0-0.1-0.3-0.3-0.3-1.7c0-1.4-0.1-7,0.3-8.6c0.4-1.7,0.3-2.5,0.3-2.7C258.3,168.3,258.7,167.5,258.7,167.5z"
		/>
	<path class="st6" d="M274.6,187c0,0,2.1-1.9,2.6-6.7c0.5-4.8,1.2-9.5,2.5-10.7c1.4-1.2,4.6-3.3,7.4-2.6c2.8,0.7,5.7,4.2,5.8,5
		c0.1,0.8,0.7,4.5-1,6.5c-1.7,2-6.4,5.1-6.1,5.6c0.3,0.5,1.1,0.5,3.7,0.2c2.5-0.3,5.8-0.4,8,0.3c2.2,0.7,4.8,1.2,7.6,1.4
		c2.8,0.2,2.9,1.4,3,1.8c0.1,0.3-0.3,1.6-1,2.2c-0.7,0.6-1.3,1.3-3,1.4c-1.7,0.1-2.2,0-2.2,0"/>
	<path class="st6" d="M299.8,190.4c0,0,3.3,0.2,3.6,0.1c0.3-0.1-0.3-1-0.6-1.1c-0.3-0.2,1,0.5,1.2,0.7c0.2,0.2,1.8-0.4,2.1-0.6
		c0.2-0.2-0.8-1.2-0.9-1.3c-0.2-0.1,1.5,0.4,1.7,0.7c0.2,0.3,0.8-1.2,0.8-1.4"/>
	<path class="st6" d="M303.7,186.5c0,0-2.9,0.3-3.2,0.2C300.2,186.5,302.9,187,303.7,186.5z"/>
	<path class="st6" d="M302,188.3c0,0-2.4-0.5-2.7-0.6c-0.4-0.1,0.1,0.3,0.5,0.6c0.4,0.2,1.3,0.5,1.5,0.3
		C301.4,188.4,302,188.3,302,188.3z"/>
	<path class="st6" d="M283.6,186.8c0,0,6.4-0.5,8.2-0.9c1.9-0.4,4-0.2,4.4-0.1c0.5,0.1,0.7-0.1,0.6-0.2c-0.1-0.1-2.9-1.1-4.7-0.8
		c-1.8,0.3-2.6,0.9-4.5,0.7c-1.8-0.2-2,0-2,0"/>
	<path class="st6" d="M278.4,179.7c0,0-0.1,3.1-0.8,4.7c-0.7,1.6-1.7,2.5-1.3,3.6c0.4,1.1,3.4,2.8,7.3,1.6c3.9-1.2,3.9-1.4,3.9-1.4"
		/>
	<path class="st6" d="M279.8,180.1c0,0,0.7,1.2,2.1,1.6c1.4,0.5,2.8,0.7,3.1,0.6c0.4-0.1-1.1,1.4-1.6,1.9c-0.5,0.6-1.4,1.7-1.6,2.2
		c-0.2,0.4-0.7,0.8-1.1,1.3c-0.5,0.4-1.3,1.5-2.1,1c-0.8-0.5-0.9-1.1-0.7-1.8c0.2-0.7,0.7-2.1,1.1-2.7c0.4-0.6,0.5-1.8,0.5-2.3
		C279.6,181.5,279.8,180.1,279.8,180.1z"/>
	<path class="st6" d="M279.6,181.4c0,0,0.6,0.9,1.6,1.3c1,0.4,2.4,0.8,2.7,0.8c0.2,0,0.2,0,0.2,0"/>
	<path class="st6" d="M279.6,182.8c0,0,1.4,0.8,2.2,1c0.8,0.2,1.6,0.5,1.6,0.5"/>
	<path class="st6" d="M279.6,183.8c0,0,2,1,2.5,1.1c0.6,0.1,0.7,0.1,0.7,0.1"/>
	<path class="st6" d="M279.3,184.1c0,0,0.8,0.9,1.5,1.2c0.8,0.4,1.3,0.6,1.3,0.6"/>
	<path class="st6" d="M278.8,184.9c0,0,0.4,0.8,1,1.1c0.6,0.4,1.5,0.7,1.8,0.8"/>
	<path class="st6" d="M278.4,185.7c0,0,0.5,0.8,1,1c0.5,0.2,1.5,0.9,1.5,0.9"/>
	<path class="st6" d="M278.2,186.4c0,0,0.5,0.7,0.9,0.9c0.4,0.3,1.3,0.8,1.3,0.8"/>
	<path class="st6" d="M278,187.1c0,0,0.3,0.7,0.7,0.9c0.4,0.2,1,0.6,1,0.6"/>
	<path class="st6" d="M291.4,187.5c0,0-2.6,2.1-3,2.6c-0.4,0.5,1.4-0.2,2.5-0.9c1.1-0.7,1.8-1.5,1.8-1.5"/>
	<path class="st6" d="M290.6,189.5c0,0,0,0.3,0.2,0.4c0.2,0.1,2.8-1.2,3.5-1.9c0.6-0.6-2.1,1.4-1.5,1.6c0.6,0.3,3.4-1.7,4.1-2"/>
	<path class="st6" d="M295.4,187.6c0,0-1.1,0.8-1.3,0.9"/>
	<path class="st6" d="M293.4,187.6c0,0-0.9,0.7-1.2,1c-0.4,0.3,1.7-1.2,1.7-1.2"/>
	<path class="st6" d="M291.8,187.6c0,0-1.9,1.5-2.1,1.7c-0.2,0.2,2.4-1.7,2.4-1.7"/>
	<path class="st6" d="M288.3,188.6c0,0-1.3,1.3-1.9,1.5c-0.7,0.3,1.3,0.1,2.3-1.2"/>
	<path class="st6" d="M286.2,188.2c0,0-1.1,0.2-0.7-0.2c0.4-0.4,6-1.7,8.2-1.8c2.2,0,2.2,0.2,2.2,0.2"/>
	<path class="st6" d="M286.6,168.2c0,0-6-0.8-7.3,5.3c-1.3,6.1,4.6,7.1,5.6,7.2c1,0.1,5.8-0.2,6.9-5.2
		C292.8,170.5,288.7,168.6,286.6,168.2z"/>
	<path class="st6" d="M285.8,172.9c0,0-0.9-0.2-1.1,0.5c-0.2,0.7-0.5,1.6,0,1.9c0,0-1.3,1.9-0.3,3.9c1.1,2,0.8,1.5,0.8,1.5"/>
	<path class="st6" d="M285.7,172.6c0,0-2-3.1-4.3-2.2"/>
	<path class="st6" d="M284.1,173.2c0,0-3.2-1-4.1,1.8"/>
	<path class="st6" d="M284.3,174.3c0,0-3.4,1.4-3,4"/>
	<path class="st6" d="M285.7,176.2c0,0,0.5,2.1,1.9,2.5c1.4,0.4,2,0.1,2,0.1"/>
	<path class="st6" d="M286.2,175.1c0,0,2.5,1.8,3.9,1c1.3-0.8,1.6-2.5,1.6-2.5"/>
	<path class="st6" d="M286.7,174.4c0,0,2.8-0.1,3.2-2.1c0.4-2,0.2-2.2,0.2-2.2"/>
	<path class="st6" d="M286.9,173.2c0,0,0.9-2,0.4-2.9c-0.5-0.9-0.8-1.9-1.4-1.9"/>
	<path class="st6" d="M286.1,174c0,0-0.3-0.2-0.6,0.1c-0.3,0.3-0.3,0.6-0.2,0.9"/>
	<path class="st6" d="M278.5,171.9c0,0-8.8,1-12.3,0.3c-3.6-0.7-2.9-0.8-2.9-0.8s-0.7-2.5-1.8-2.5c-1,0-2.7,0.5-2.9,0.9"/>
	<path class="st6" d="M263.4,172c0,0-0.1,5.2-0.7,6.8c-0.6,1.5-2.7,5.1-2.7,5.1s-0.8,2.1-1.2,2.8c-0.4,0.7-0.2,0.9-0.2,0.9"/>
	<path class="st6" d="M265.1,174.6c0,0,0,2.8-0.5,4.8c-0.6,2-0.6,2-0.6,2"/>
	<path class="st6" d="M267.2,174.8c0,0,0,3.4-0.3,4.9c-0.4,1.5-0.6,2.2-0.6,2.2"/>
	<path class="st6" d="M269.7,175.2c0,0,0,2.3-0.1,4c-0.1,1.7-1,3.9-1,3.9"/>
	<path class="st6" d="M272.9,174.9c0,0,0.3,2.2,0.2,3.4c-0.1,1.2,0.1,2.4-0.2,3.3c-0.3,0.9-1,1.7-1,1.7"/>
	<path class="st6" d="M276.1,183.5c0,0-6.3-0.3-9.6-0.9c-3.2-0.6-3.9-1.3-3.9-1.3"/>
	<path class="st6" d="M261.1,183.1c0,0,5,2.7,6.1,3c1.1,0.2,6,0.7,6.6,0.7"/>
	<path class="st6" d="M258.7,170c0,0,1.9-0.4,2.3,0.1c0.4,0.6,1.6,3.4,1.4,5.9c-0.2,2.5-0.8,4.2-1.6,4.9c-0.8,0.6-2.6,0.7-2.8,0.7"
		/>
	<path class="st6" d="M258.2,172c0,0,1.4-0.8,1.7-0.1c0.3,0.7,1.5,4.4,1,5.2c-0.4,0.8-0.2,1.2-0.8,1.2c-0.6,0-0.8,0.1-0.9-0.2
		c-0.1-0.3-0.2-0.6-0.2-1.2c0-0.6,0-2.7,0-2.9c0-0.1,0-0.5,0.2-0.4c0.2,0.1,1.1,1,0.9,1.9c-0.1,0.9,0.4,0.9-0.1,0.9
		c-0.5,0-0.6,0.3-0.6-0.1c0-0.4-0.4-0.3,0-0.4"/>
	<path class="st6" d="M260.6,187.1c0,0,0.6,1,0.6,1.2c0,0.2,1.2,1.2,1.5,2.1c0.3,0.9,2.5,2.2,2.5,2.2"/>
	<path class="st6" d="M261.7,187.2c0,0,0,0.8,2.2,0.7"/>
	<path class="st6" d="M264.7,189.8c0,0,0.5,2.4,1.5,2.3"/>
	<path class="st6" d="M261.2,193.6c0,0-0.2-0.2-1.1-1.3c-0.8-1-0.7,0-0.9-1.7c-0.2-1.7-0.5-2.4-0.5-2.4"/>
	<path class="st6" d="M263.1,192.1c0,0-0.4-0.6-0.8-0.9c-0.3-0.3-0.3-0.1-0.7-0.5c-0.3-0.4-0.8-0.4-0.8-0.7s0-0.1,0-0.7s0-0.6,0-1.1
		c0-0.4-0.1-0.8-0.1-0.8"/>
	<path class="st6" d="M262.1,193.2c-0.2,0,0.1,0.4-0.6-0.7c-0.7-1.1-0.8-0.9-1.1-1.4c-0.3-0.5-0.7-0.6-0.7-1.3"/>
	<path class="st6" d="M267.8,190.3c0,0,0.5-2.4-0.4-3.2c-0.9-0.7-1.6-1.1-2.9-1.1c-1.3,0-2.9,0-3.3,0c-0.3,0-0.8,0-1.2,0.2
		c-0.3,0.2-0.5,0.2-0.7,0.5c-0.1,0.2-0.3,0.5-0.3,0.5"/>
	<path class="st6" d="M259.3,169c0,0-0.4-0.3-0.4-0.7"/>
	<path class="st6" d="M259,167.1c0,0,0.7,1.8,1,1.9"/>
	<path class="st6" d="M260.1,166.2c0,0,0.9,2.5,1.1,2.6"/>
	<path class="st6" d="M260,167.9c0,0,0.2,0.7,0.5,0.9"/>
	<path class="st6" d="M261.5,167.6c0,0,0,0.6,0.4,1"/>
	<path class="st6" d="M261.9,165.8c0,0-0.6-0.7-0.2,0.7c0.4,1.3,1.2,2.9,1.2,2.9s0.2,0,0.3,0c0.1,0,3.5,0.2,4.2,0.2
		c0.7,0,6.5-0.4,9.9-1.2c3.3-0.8,5.9-1.9,11.8-2.3c5.9-0.4,10.1-0.4,10.1-0.4s-4.2-2.5-5.9-3.7c-1.7-1.2-2.5-1.3-2.8-1.4"/>
	<path class="st6" d="M295,165.4c0,0-3.2-2.8-3.3-2.7c-0.1,0.1,2.2,2.4,2.1,2.7"/>
	<path class="st6" d="M291.9,165.5c0,0-3.3-3.7-4.3-4c-1-0.3-1.1-0.2-1.1-0.2"/>
	<path class="st6" d="M286.9,165.8c0,0-3.5-3.4-4-3.6"/>
	<path class="st6" d="M282.6,166.8c0,0-3.2-2.9-3.9-3.2c-0.7-0.4-0.7-0.4-0.7-0.4"/>
	<path class="st6" d="M277.4,167.9c0,0-2-3.2-3.2-3.7"/>
	<path class="st6" d="M273.2,168.7c0,0-2.5-3.4-3-3.7"/>
	<path class="st6" d="M269.3,169.1c0,0-2.3-3.9-2.8-4.2"/>
	<path class="st6" d="M265.8,169.1c0,0-1.1-3-1.6-3.6"/>
	<path class="st6" d="M264.3,169.1c0,0-0.8-1.9-0.7-1.9C263.6,167.2,264.2,169,264.3,169.1z"/>
	<path class="st6" d="M267.2,169.2c0,0-0.5-1.9-0.6-2c-0.1-0.1,0.9,1.9,0.9,1.9"/>
	<path class="st6" d="M270.7,169.1c-0.1-0.1-1.2-2-1.4-2.3c-0.2-0.3,1.4,1.6,1.5,2"/>
	<path class="st6" d="M274.5,168.5c0,0-0.4-1.8-1.1-2.3c-0.8-0.5,1,0.5,1.4,1.2c0.3,0.8,0.4,1.1,0.4,1.1"/>
	<path class="st6" d="M279.2,167.5c-0.1-0.1-0.7-1.7-1.5-2.2c-0.8-0.5,1.3,1,1.6,1.5"/>
	<path class="st6" d="M283.6,166.1c0,0-1.6-1.9-1.9-2c-0.3-0.1,1.8,0.6,2.2,1.2c0.4,0.6,0.6,0.8,0.6,0.8"/>
	<path class="st6" d="M289,165.7c0,0-2-1.6-2.5-2.1c-0.4-0.5-0.7-1,0.1-0.5c0.8,0.5,1,0.6,1.5,1c0.5,0.5,0.9,0.5,1,0.8
		c0.1,0.3,0.1,0.5,0.2,0.5"/>
	<path class="st6" d="M305.2,164.5c0,0,0.3-0.6,0.7-0.6c0.4,0.1,1.3,0.7,0.8,1.3c-0.4,0.6-0.3,0.9-0.7,0.9s-8.2-3.8-8.2-3.8l-1-0.7
		l-0.3,0.1c0,0,5.8-0.1,7,0c1.2,0.1,3.6,0.6,4.1,1.5c0.6,0.9,0.7,1.7,0.7,2c0,0.4,0,0.7,0.1,1.2c0.1,0.5,1.2,3,2,3.6
		c0.7,0.7,3.4,1.9,4.5,0.9c1.1-1,0-1.3-0.4-1.1c-0.4,0.2-0.9,0.8-2.3,0c-1.4-0.8-2.4-2.1-2.5-3c-0.1-0.9-0.3-2.3-0.3-2.3l-0.8-2.2"
		/>
	<path class="st6" d="M313,166.9c0,0-0.9-0.5-1.2,0.5c-0.3,0.9-0.5,1.8-0.1,2.1c0.4,0.3,1.5,0.8,1.7,0.5c0.2-0.3,0.6-1.2,0.6-1.5
		C313.8,168,313.9,167.4,313,166.9z"/>
	<path class="st6" d="M312.9,167.6c0,0-0.2,0.5-0.3,0.8c0,0.3,0.1,0.7,0.1,0.7S313,168.8,312.9,167.6z"/>
	<path class="st6" d="M311.9,166.7c0,0-1.3-0.8-1.7-1"/>
	<path class="st6" d="M314,167.7c0,0,0-0.2,0.4,0c0.4,0.2,0.5,1.1,0.5,1.3c0,0.1-0.1,0.9-0.1,0.9s-0.8,0.4-0.9,0.3"/>
	<path class="st6" d="M310.5,165.4c0,0,0.7-0.3,1.7,0.2c1,0.5,1.8,0.7,2,0.9c0.2,0.2,0.5,0.4,0.5,0.5c0,0.1-0.1,0.5-0.1,0.5"/>
	<path class="st6" d="M315.4,167.5c0,0-0.5-0.6,0.1-0.6s1.3,0,1.7,0.1c0.4,0.1,1,0.1,1.2,0.2c0.2,0.1,0.6,0.3,0.7,0.6
		c0,0.4-0.3,1.5-0.3,1.8c-0.1,0.3-0.1,0.5-0.3,0.7c-0.2,0.2-0.6,0.5-0.6,0.5"/>
	<path class="st6" d="M317,170.3c0-0.2-0.2-0.8-0.2-0.8s-0.6-1.2-0.7-1.6c-0.2-0.4-0.7-0.2-0.7-0.2s1.4,2.8,2.5,3.7
		c1.1,0.9,1,1.2,1,1.2"/>
	<path class="st6" d="M316,167.6c0,0,0.7-0.6,1.3-0.5c0.6,0.1,1,0.3,1,0.3"/>
	<path class="st6" d="M318.6,169.8c0,0-0.8,0.7-0.9,0.7"/>
	<path class="st6" d="M316.9,167.8c0,0,0.9,1.7,0.9,2.2"/>
	<path class="st6" d="M317.6,167.8c0,0,0.6,1.7,0.6,2"/>
	<path class="st6" d="M318.2,167.9c0,0,0.5,0.6,0.5,1"/>
	<path class="st6" d="M320.4,167.2c0,0,0,1.7-0.3,2.4c-0.3,0.8-0.4,1.1-0.6,1.6s-0.6,0.7-0.6,0.8c0,0.1-0.3,0.3-0.1,0.6
		c0.2,0.3,1,0.8,1.1,0.9c0,0.1,0.1,1.2,0,1.4c-0.1,0.2-0.2,0.6-0.4,1c-0.2,0.4-0.5,0.6-0.6,0.7"/>
	<path class="st6" d="M318.5,176.4c0,0-2.6-3.4-3.6-3.2c-1,0.2-2.1,1.5-2,2.6c0.1,1.1,0.5,2.5,1.1,3.2c0.6,0.7,2.8,2,2.8,2l0.4,0.3
		c0,0,0.4-0.7,0.4-1.1s0.4-1.8,0.7-2.2c0.3-0.4,0.7-1.1,0.5-1.3C318.6,176.6,318.5,176.4,318.5,176.4z"/>
	<path class="st6" d="M314.4,174.4c0,0-0.5,1.5-0.5,2c0,0.5,0.2,0.7,0.3,1.1c0.1,0.5,0.2,0.6,0.4,0.8c0.2,0.2,0.3,0.2,0.8,0.4
		c0.5,0.2,2.2,0.3,2.2-0.5c0-0.8,0.6-2-0.6-2.8C315.7,174.5,314.9,174,314.4,174.4z"/>
	<path class="st6" d="M318.7,176.1c0,0,0.6-0.6,0.1-0.9c-0.5-0.3-1.3-0.3-1.3-0.3s-0.3-0.1-0.8-0.7c-0.5-0.5-1.3-2.1-3-1.6
		c-1.7,0.6-1.8,1.8-2.3,2.9c-0.5,1.1-2.2,3.5-4.8,2.8c-2.6-0.7-6.3-3.3-5.8-6.1c0.5-2.8,1.9-4.9,4.3-4.8c2.5,0.1,4.4,1,4.5,2.9
		c0.2,1.9,0,4.8-1.6,4.9c-1.6,0.1-5.1-0.6-5-2.2c0.1-1.6,0.4-3.6,1.7-3.6c1.3,0,3.5,0.8,3.2,2c-0.3,1.2-0.7,1.9-1.8,1.7
		c-1.1-0.2-2-1.8-1.2-2c0.8-0.2,1.1-0.3,1-0.2c0,0.2-0.3,0.4-0.5,0.3"/>
	<path class="st6" d="M308.3,166.5c0,0-1,0.3-0.8,0.7c0.2,0.4,0.6,0.9,0.9,0.9c0.3,0,0.5,0,0.5-0.2c0-0.2,0.2,0,0-0.4
		C308.7,167.1,308.3,166.5,308.3,166.5z"/>
	<path class="st6" d="M310.2,165.1c0,0,2-0.2,2.6,0c0.7,0.2,0.9,0.4,0.9,0.4"/>
	<path class="st6" d="M318.4,172.4c0,0-1.3,1.1-1.4,1.5"/>
	<path class="st6" d="M317.2,172.2c0,0-0.9,0.9-0.9,1.3"/>
	<path class="st6" d="M316.6,171.9c0,0-0.8,0.5-0.7,1.1"/>
	<path class="st6" d="M316,171.5c0,0-0.7,0.9-0.7,1.2"/>
	<path class="st6" d="M316.1,170c0,0,1.4,1.5,1.8,1.8"/>
	<path class="st6" d="M313.1,177.5c0,0-1.3-1.5-1.7-1.2"/>
	<path class="st6" d="M310.9,175.1c0,0-1.8,2.8-3.4,2.6c-1.7-0.1-2.5-0.5-2.5-0.5"/>
	<path class="st6" d="M302.5,175c0,0-1.5-2.4-1.1-3.2"/>
	<path class="st6" d="M317.2,181.5c0,0,0.5,0.7-0.1,0.8c-0.6,0.1-0.9-0.1-1.3-0.3c-0.4-0.2-2.7-2.4-3.3-3c-0.6-0.5-0.8-1.3-1.4-1.3
		c-0.6,0-1,0-1.1,0.1"/>
	<path class="st6" d="M306.4,178.6c0,0-8.4,4.8-10.5,5.2"/>
	<path class="st6" d="M316.2,186c-0.1,0-1.2-0.7-2-2.2c-0.8-1.4-1.1-2.4-3.5-2.3c-2.4,0.2-3.5,0.8-3.3,1.8c0.2,1,0.7,2.8,1.4,2.8
		c0.6,0,1.9-0.4,2-1.5c0-1.1-0.2-1.7-0.2-1.7s1.8,0.1,2.3,1.1c0.5,1,2.7,3.1,3.5,2.8C317.2,186.5,316.2,186,316.2,186z"/>
	<path class="st6" d="M318.9,183.4c0,0-0.3,2-0.9,2.4c-0.6,0.4-0.7,0.9-1.1,0.7c-0.4-0.2-1.2-1.4-1.2-1.4s-0.9-0.7-1.1-0.9
		c-0.1-0.1-0.9-1.3-0.9-1.3s2.2,1.2,2.7,1.1c0.6,0,1.1,0.6,0.8-0.5c-0.3-1.1-0.3-1.3-0.3-1.3"/>
	<path class="st6" d="M318.1,180.6c0,0,0.2,2.2,0,2.7c-0.2,0.5-0.4,1-0.4,1l-0.2,0.1"/>
	<path class="st6" d="M321.4,180c0,0-1.2-0.4-1.1,0.4c0.1,0.8,0.8,1.5,0.6,1.9c-0.1,0.4-1.2,0.7-1.3,0.7c-0.1,0-0.6-0.3-0.6-0.3"/>
	<path class="st6" d="M321.6,184c0,0,0.1,1.2-1.2,0.8c-1.4-0.4-1.4-0.4-1.4-0.4"/>
	<path class="st6" d="M317,188c0,0-0.1,1.2-0.5,2c-0.4,0.7-0.9,1.2-0.9,1.2"/>
	<path class="st6" d="M318.4,186.4c0,0,0,1.6-0.2,2c-0.2,0.3-0.5,1.1-0.6,1.3"/>
	<path class="st6" d="M319.3,186.1c0,0,0,2.7,0,2.9c0,0.1-0.3,0.6-0.3,0.6"/>
	<path class="st6" d="M320.2,190c0,0-1.5,0.7-1.8,0.8c-0.3,0.1-0.5,0.1-0.9,0.3c-0.4,0.2-0.8,0.3-0.8,0.3"/>
	<path class="st6" d="M320.7,190.7c0,0.1,0.1,0.8-0.9,1.4"/>
	<path class="st6" d="M307.1,190.1c0,0,0.3,0,0.4,0c0.1,0,0.5-0.5,0.5-0.2s0,1,0,1l0.3,0l0.5-0.8c0,0,0.3,0.5,0.3,0.6
		c0,0.1,0.1,0.3,0.2,0.2c0.1-0.1,0.5-0.3,0.8-0.3c0.3,0,1.1,0.1,0.8,0.4s-2,0.8-2.3,0.9c-0.2,0.1,0,0.1-0.4,0.1"/>
	<path class="st6" d="M311.8,191.3c0,0,0.5,0,0.4-0.5c-0.1-0.5-0.2-0.7-0.4-0.7c-0.1,0-1.8-0.1-1.8-0.1s-0.2-1.4,0-1.5
		c0.2-0.1,1.1-0.2,1.2-0.1c0.1,0.1,0.7,0.2,0.9,0.5c0.2,0.2,0.5,0.2,0.5,0.2l-1.1-1.1c0,0-0.6-0.8,0-0.9c0.6-0.1,1.9-0.5,2.2,0
		c0.3,0.5,0.7,0.7,0.9,1.5c0.2,0.8,0.2,1.1,0.4,1.3c0.1,0.2,1-1.6,1.2-1.9c0.1-0.3,0.6,0,0.5,0.4c-0.1,0.5-0.5,1.4-0.6,1.6"/>
	<path class="st6" d="M313,187.8c0,0,0.5,1.5,0.2,2.1"/>
	<path class="st6" d="M313.8,190.5c0,0-0.2,0.3,0.3,0.9c0.5,0.5,0.8,0.6,0.8,0.6"/>
	<path class="st6" d="M313.6,192.6c-0.6-0.2-1-0.4-1.2-0.4"/>
	<path class="st6" d="M286.3,183.8c0,0,3.4-1.7,4.8-2.3c1.4-0.6,2.9-1.3,2.9-1.3s-3.8,0.4-3.6,0.1c0.2-0.3,0.2-0.3,0.2-0.3"/>
	<polyline class="st6" points="301.4,175.6 299.7,176.7 301.9,177.1 	"/>
	<polyline class="st6" points="299.7,174.8 294.4,174.8 293.5,174.6 	"/>
	<polyline class="st6" points="292.3,178 295.7,175.8 293.3,176.1 	"/>
	<polyline class="st6" points="300.3,171.9 298.2,172.7 300.5,172.8 	"/>
	<path class="st6" d="M300.2,170.6c0,0-3.5,1.4-4.3,2c-0.8,0.5-1.1,0.8-1.3,1c-0.2,0.2-0.7,0.7-0.7,0.7l-0.1,0.2l6.7,0l-6.9,4.5
		c0,0,1,0,1.2-0.1c0.2,0,0.9-0.1,1-0.1c0.1,0,4.2-0.1,4.2-0.1l-9.4,5c0,0,1.9-0.6,5.9-2.7c4-2.1,6.7-4.3,6.7-4.3"/>
	<path class="st6" d="M297.6,171.5c0,0,2.5-1.7,2.1-1.7c-0.4,0-6.8,0.5-6.8,0.5"/>
	<path class="st6" d="M293.2,172.6c0,0,2.1-1.5,2.5-1.7c0.4-0.2-2.5,0.3-2.5,0.3"/>
	<path class="st6" d="M301.2,168.1c0,0-1.6,0-2.3,0c-0.7,0,1.5-1.3,1.7-1.5c0.2-0.2,0.2-0.2,0.2-0.2"/>
	<path class="st6" d="M299.8,166c0,0-6.1,3.4-6.6,3.8c-0.5,0.4,5.3,0,6.4,0"/>
	<path class="st6" d="M299.3,166c0,0-11.5-0.4-14.7,0.5"/>
	<path class="st6" d="M291.6,169c0,0,0.1-0.4,1.4-1.1c1.3-0.7-3-0.2-3-0.2"/>
</g>
</svg>
